<svg xmlns="http://www.w3.org/2000/svg" width="2200" height="3060" viewBox="0 0 2200 3060"><defs><marker id="arrow-block" markerWidth="12" markerHeight="12" refX="10" refY="6" orient="auto" markerUnits="strokeWidth"><path d="M 0 0 L 12 6 L 0 12 z" fill="currentColor"/></marker><marker id="arrow-open" markerWidth="12" markerHeight="12" refX="10" refY="6" orient="auto" markerUnits="strokeWidth"><path d="M 0 0 L 12 6 L 0 12" fill="none" stroke="currentColor" stroke-width="1.5"/></marker></defs><rect x="0" y="0" width="2200" height="3060" fill="#ffffff"/><rect x="720" y="40" width="260" height="72" rx="28" fill="#f8fafc" stroke="#64748b" stroke-width="1.5"/><text x="850.0" y="68.0" text-anchor="middle" dominant-baseline="central" font-family="sans-serif" font-size="12" fill="#0f172a">定时触发</text><text x="850.0" y="84.0" text-anchor="middle" dominant-baseline="central" font-family="sans-serif" font-size="12" fill="#0f172a">dispatchOwnedPartitions</text><rect x="720" y="160" width="260" height="88" rx="16" fill="#dbeafe" stroke="#2563eb" stroke-width="1.5"/><text x="850.0" y="196.0" text-anchor="middle" dominant-baseline="central" font-family="sans-serif" font-size="12" fill="#0f172a">读取当前实例持有的</text><text x="850.0" y="212.0" text-anchor="middle" dominant-baseline="central" font-family="sans-serif" font-size="12" fill="#0f172a">partitions</text><polygon points="830.0,300 940,355.0 830.0,410 720,355.0" fill="#fef3c7" stroke="#d97706" stroke-width="1.5"/><text x="830.0" y="347.0" text-anchor="middle" dominant-baseline="central" font-family="sans-serif" font-size="12" fill="#0f172a">该 partition</text><text x="830.0" y="363.0" text-anchor="middle" dominant-baseline="central" font-family="sans-serif" font-size="12" fill="#0f172a">是否已在运行</text><rect x="1080" y="310" width="260" height="88" rx="16" fill="#dbeafe" stroke="#2563eb" stroke-width="1.5"/><text x="1210.0" y="346.0" text-anchor="middle" dominant-baseline="central" font-family="sans-serif" font-size="12" fill="#0f172a">跳过本轮</text><text x="1210.0" y="362.0" text-anchor="middle" dominant-baseline="central" font-family="sans-serif" font-size="12" fill="#0f172a">避免同 partition 重入</text><rect x="720" y="460" width="260" height="88" rx="16" fill="#dbeafe" stroke="#2563eb" stroke-width="1.5"/><text x="850.0" y="504.0" text-anchor="middle" dominant-baseline="central" font-family="sans-serif" font-size="12" fill="#0f172a">提交到 dispatchExecutor</text><rect x="680" y="600" width="340" height="96" rx="16" fill="#dbeafe" stroke="#2563eb" stroke-width="1.5"/><text x="850.0" y="640.0" text-anchor="middle" dominant-baseline="central" font-family="sans-serif" font-size="12" fill="#0f172a">drainPartition 内循环</text><text x="850.0" y="656.0" text-anchor="middle" dominant-baseline="central" font-family="sans-serif" font-size="12" fill="#0f172a">最多执行 maxTasksPerPartitionTick 次</text><polygon points="830.0,760 940,815.0 830.0,870 720,815.0" fill="#fef3c7" stroke="#d97706" stroke-width="1.5"/><text x="830.0" y="807.0" text-anchor="middle" dominant-baseline="central" font-family="sans-serif" font-size="12" fill="#0f172a">ActiveTaskQueue</text><text x="830.0" y="823.0" text-anchor="middle" dominant-baseline="central" font-family="sans-serif" font-size="12" fill="#0f172a">是否有活跃任务</text><rect x="1080" y="770" width="280" height="80" rx="28" fill="#f8fafc" stroke="#64748b" stroke-width="1.5"/><text x="1220.0" y="802.0" text-anchor="middle" dominant-baseline="central" font-family="sans-serif" font-size="12" fill="#0f172a">runPartition 返回 false</text><text x="1220.0" y="818.0" text-anchor="middle" dominant-baseline="central" font-family="sans-serif" font-size="12" fill="#0f172a">本 partition 本轮结束</text><rect x="720" y="920" width="280" height="88" rx="16" fill="#dbeafe" stroke="#2563eb" stroke-width="1.5"/><text x="860.0" y="964.0" text-anchor="middle" dominant-baseline="central" font-family="sans-serif" font-size="12" fill="#0f172a">加载任务实体并检查 RUNNING</text><polygon points="830.0,1060 940,1115.0 830.0,1170 720,1115.0" fill="#fef3c7" stroke="#d97706" stroke-width="1.5"/><text x="830.0" y="1107.0" text-anchor="middle" dominant-baseline="central" font-family="sans-serif" font-size="12" fill="#0f172a">任务状态</text><text x="830.0" y="1123.0" text-anchor="middle" dominant-baseline="central" font-family="sans-serif" font-size="12" fill="#0f172a">是否为 RUNNING</text><rect x="1080" y="1070" width="260" height="88" rx="16" fill="#dbeafe" stroke="#2563eb" stroke-width="1.5"/><text x="1210.0" y="1106.0" text-anchor="middle" dominant-baseline="central" font-family="sans-serif" font-size="12" fill="#0f172a">block(PAUSED)</text><text x="1210.0" y="1122.0" text-anchor="middle" dominant-baseline="central" font-family="sans-serif" font-size="12" fill="#0f172a">runPartition 返回 true</text><rect x="720" y="1220" width="300" height="88" rx="16" fill="#dbeafe" stroke="#2563eb" stroke-width="1.5"/><text x="870.0" y="1264.0" text-anchor="middle" dominant-baseline="central" font-family="sans-serif" font-size="12" fill="#0f172a">预加载号码到 Redis ready 热窗口</text><rect x="720" y="1360" width="260" height="88" rx="16" fill="#dbeafe" stroke="#2563eb" stroke-width="1.5"/><text x="850.0" y="1404.0" text-anchor="middle" dominant-baseline="central" font-family="sans-serif" font-size="12" fill="#0f172a">申请批量并发额度</text><polygon points="830.0,1500 940,1555.0 830.0,1610 720,1555.0" fill="#fef3c7" stroke="#d97706" stroke-width="1.5"/><text x="830.0" y="1547.0" text-anchor="middle" dominant-baseline="central" font-family="sans-serif" font-size="12" fill="#0f172a">granted</text><text x="830.0" y="1563.0" text-anchor="middle" dominant-baseline="central" font-family="sans-serif" font-size="12" fill="#0f172a">是否大于 0</text><rect x="1080" y="1510" width="300" height="88" rx="16" fill="#dbeafe" stroke="#2563eb" stroke-width="1.5"/><text x="1230.0" y="1546.0" text-anchor="middle" dominant-baseline="central" font-family="sans-serif" font-size="12" fill="#0f172a">block(CONCURRENCY_FULL)</text><text x="1230.0" y="1562.0" text-anchor="middle" dominant-baseline="central" font-family="sans-serif" font-size="12" fill="#0f172a">runPartition 返回 true</text><rect x="720" y="1660" width="280" height="88" rx="16" fill="#dbeafe" stroke="#2563eb" stroke-width="1.5"/><text x="860.0" y="1704.0" text-anchor="middle" dominant-baseline="central" font-family="sans-serif" font-size="12" fill="#0f172a">claimReady 领取 ready 号码</text><polygon points="830.0,1800 940,1855.0 830.0,1910 720,1855.0" fill="#fef3c7" stroke="#d97706" stroke-width="1.5"/><text x="830.0" y="1855.0" text-anchor="middle" dominant-baseline="central" font-family="sans-serif" font-size="12" fill="#0f172a">是否领到号码</text><rect x="1080" y="1810" width="300" height="100" rx="16" fill="#dbeafe" stroke="#2563eb" stroke-width="1.5"/><text x="1230.0" y="1844.0" text-anchor="middle" dominant-baseline="central" font-family="sans-serif" font-size="12" fill="#0f172a">releaseBatch(granted)</text><text x="1230.0" y="1860.0" text-anchor="middle" dominant-baseline="central" font-family="sans-serif" font-size="12" fill="#0f172a">block(EMPTY)</text><text x="1230.0" y="1876.0" text-anchor="middle" dominant-baseline="central" font-family="sans-serif" font-size="12" fill="#0f172a">runPartition 返回 true</text><rect x="720" y="1960" width="300" height="96" rx="16" fill="#dbeafe" stroke="#2563eb" stroke-width="1.5"/><text x="870.0" y="2000.0" text-anchor="middle" dominant-baseline="central" font-family="sans-serif" font-size="12" fill="#0f172a">加载号码、候选主叫与统计</text><text x="870.0" y="2016.0" text-anchor="middle" dominant-baseline="central" font-family="sans-serif" font-size="12" fill="#0f172a">逐条选号</text><path d="M 1120 1960 H 1416 L 1440 1984 V 2070 H 1120 Z" fill="#ffffff" stroke="#94a3b8" stroke-width="1.5"/><line x1="1416" y1="1960" x2="1416" y2="1984" stroke="#94a3b8" stroke-width="1"/><line x1="1416" y1="1984" x2="1440" y2="1984" stroke="#94a3b8" stroke-width="1"/><text x="1280.0" y="2007.0" text-anchor="middle" dominant-baseline="central" font-family="sans-serif" font-size="12" fill="#0f172a">选号失败或号码缺失</text><text x="1280.0" y="2023.0" text-anchor="middle" dominant-baseline="central" font-family="sans-serif" font-size="12" fill="#0f172a">回退 ready 并释放差额并发</text><rect x="720" y="2120" width="260" height="88" rx="16" fill="#dbeafe" stroke="#2563eb" stroke-width="1.5"/><text x="850.0" y="2156.0" text-anchor="middle" dominant-baseline="central" font-family="sans-serif" font-size="12" fill="#0f172a">READY -&gt; DIALING</text><text x="850.0" y="2172.0" text-anchor="middle" dominant-baseline="central" font-family="sans-serif" font-size="12" fill="#0f172a">条件更新</text><polygon points="840.0,2260 960,2320.0 840.0,2380 720,2320.0" fill="#fef3c7" stroke="#d97706" stroke-width="1.5"/><text x="840.0" y="2312.0" text-anchor="middle" dominant-baseline="central" font-family="sans-serif" font-size="12" fill="#0f172a">实际进入 DIALING 的数量</text><text x="840.0" y="2328.0" text-anchor="middle" dominant-baseline="central" font-family="sans-serif" font-size="12" fill="#0f172a">是否大于 0</text><rect x="1080" y="2270" width="300" height="100" rx="16" fill="#dbeafe" stroke="#2563eb" stroke-width="1.5"/><text x="1230.0" y="2304.0" text-anchor="middle" dominant-baseline="central" font-family="sans-serif" font-size="12" fill="#0f172a">回退未成功迁移号码</text><text x="1230.0" y="2320.0" text-anchor="middle" dominant-baseline="central" font-family="sans-serif" font-size="12" fill="#0f172a">block(EMPTY)</text><text x="1230.0" y="2336.0" text-anchor="middle" dominant-baseline="central" font-family="sans-serif" font-size="12" fill="#0f172a">runPartition 返回 true</text><rect x="720" y="2430" width="320" height="96" rx="16" fill="#dbeafe" stroke="#2563eb" stroke-width="1.5"/><text x="880.0" y="2470.0" text-anchor="middle" dominant-baseline="central" font-family="sans-serif" font-size="12" fill="#0f172a">AsyncDialDispatchService.submit</text><text x="880.0" y="2486.0" text-anchor="middle" dominant-baseline="central" font-family="sans-serif" font-size="12" fill="#0f172a">异步下发到外部拨号链路</text><polygon points="840.0,2580 960,2640.0 840.0,2700 720,2640.0" fill="#fef3c7" stroke="#d97706" stroke-width="1.5"/><text x="840.0" y="2632.0" text-anchor="middle" dominant-baseline="central" font-family="sans-serif" font-size="12" fill="#0f172a">本轮结果决定</text><text x="840.0" y="2648.0" text-anchor="middle" dominant-baseline="central" font-family="sans-serif" font-size="12" fill="#0f172a">block 还是 reactivate</text><rect x="340" y="2740" width="320" height="96" rx="16" fill="#dbeafe" stroke="#2563eb" stroke-width="1.5"/><text x="500.0" y="2780.0" text-anchor="middle" dominant-baseline="central" font-family="sans-serif" font-size="12" fill="#0f172a">ready 不足或并发未拿满</text><text x="500.0" y="2796.0" text-anchor="middle" dominant-baseline="central" font-family="sans-serif" font-size="12" fill="#0f172a">block(EMPTY/CONCURRENCY_FULL)</text><rect x="1020" y="2740" width="280" height="96" rx="16" fill="#dbeafe" stroke="#2563eb" stroke-width="1.5"/><text x="1160.0" y="2780.0" text-anchor="middle" dominant-baseline="central" font-family="sans-serif" font-size="12" fill="#0f172a">更新 fairScore</text><text x="1160.0" y="2796.0" text-anchor="middle" dominant-baseline="central" font-family="sans-serif" font-size="12" fill="#0f172a">reactivate(nextFairScore)</text><rect x="700" y="2900" width="340" height="80" rx="28" fill="#f8fafc" stroke="#64748b" stroke-width="1.5"/><text x="870.0" y="2932.0" text-anchor="middle" dominant-baseline="central" font-family="sans-serif" font-size="12" fill="#0f172a">runPartition 返回 true</text><text x="870.0" y="2948.0" text-anchor="middle" dominant-baseline="central" font-family="sans-serif" font-size="12" fill="#0f172a">dispatcher 可继续本 partition 下一轮</text><path d="M 1460 2440 H 1956 L 1980 2464 V 2580 H 1460 Z" fill="#ffffff" stroke="#94a3b8" stroke-width="1.5"/><line x1="1956" y1="2440" x2="1956" y2="2464" stroke="#94a3b8" stroke-width="1"/><line x1="1956" y1="2464" x2="1980" y2="2464" stroke="#94a3b8" stroke-width="1"/><text x="1720.0" y="2494.0" text-anchor="middle" dominant-baseline="central" font-family="sans-serif" font-size="12" fill="#0f172a">下发闭环补充：</text><text x="1720.0" y="2510.0" text-anchor="middle" dominant-baseline="central" font-family="sans-serif" font-size="12" fill="#0f172a">1. 发送失败时补偿回滚到 READY 并 release</text><text x="1720.0" y="2526.0" text-anchor="middle" dominant-baseline="central" font-family="sans-serif" font-size="12" fill="#0f172a">2. 回调成功/失败后 release 并重新 activate 任务</text><path d="M 850.0 112 L 850.0 160" fill="none" stroke="#1d4ed8" stroke-width="2" marker-end="url(#arrow-block)" style="color: #1d4ed8"/><path d="M 850.0 248 L 830.0 300" fill="none" stroke="#1d4ed8" stroke-width="2" marker-end="url(#arrow-block)" style="color: #1d4ed8"/><text x="830.0" y="288.0" text-anchor="middle" dominant-baseline="central" font-family="sans-serif" font-size="11" fill="#111827">遍历每个 owned partition</text><path d="M 940 355.0 L 1080 354.0" fill="none" stroke="#64748b" stroke-width="1.5" stroke-dasharray="2 4" marker-end="url(#arrow-open)" style="color: #64748b"/><text x="1080" y="342.0" text-anchor="middle" dominant-baseline="central" font-family="sans-serif" font-size="11" fill="#111827">是</text><path d="M 830.0 410 L 850.0 460" fill="none" stroke="#1d4ed8" stroke-width="2" marker-end="url(#arrow-block)" style="color: #1d4ed8"/><text x="850.0" y="448.0" text-anchor="middle" dominant-baseline="central" font-family="sans-serif" font-size="11" fill="#111827">否</text><path d="M 850.0 548 L 850.0 600" fill="none" stroke="#1d4ed8" stroke-width="2" marker-end="url(#arrow-block)" style="color: #1d4ed8"/><path d="M 850.0 696 L 830.0 760" fill="none" stroke="#1d4ed8" stroke-width="2" marker-end="url(#arrow-block)" style="color: #1d4ed8"/><path d="M 940 815.0 L 1080 810.0" fill="none" stroke="#64748b" stroke-width="1.5" stroke-dasharray="2 4" marker-end="url(#arrow-open)" style="color: #64748b"/><text x="1080" y="798.0" text-anchor="middle" dominant-baseline="central" font-family="sans-serif" font-size="11" fill="#111827">否</text><path d="M 830.0 870 L 860.0 920" fill="none" stroke="#1d4ed8" stroke-width="2" marker-end="url(#arrow-block)" style="color: #1d4ed8"/><text x="860.0" y="908.0" text-anchor="middle" dominant-baseline="central" font-family="sans-serif" font-size="11" fill="#111827">是</text><path d="M 860.0 1008 L 830.0 1060" fill="none" stroke="#1d4ed8" stroke-width="2" marker-end="url(#arrow-block)" style="color: #1d4ed8"/><path d="M 940 1115.0 L 1080 1114.0" fill="none" stroke="#64748b" stroke-width="1.5" stroke-dasharray="2 4" marker-end="url(#arrow-open)" style="color: #64748b"/><text x="1080" y="1102.0" text-anchor="middle" dominant-baseline="central" font-family="sans-serif" font-size="11" fill="#111827">否</text><path d="M 830.0 1170 L 870.0 1220" fill="none" stroke="#1d4ed8" stroke-width="2" marker-end="url(#arrow-block)" style="color: #1d4ed8"/><text x="870.0" y="1208.0" text-anchor="middle" dominant-baseline="central" font-family="sans-serif" font-size="11" fill="#111827">是</text><path d="M 870.0 1308 L 850.0 1360" fill="none" stroke="#1d4ed8" stroke-width="2" marker-end="url(#arrow-block)" style="color: #1d4ed8"/><path d="M 850.0 1448 L 830.0 1500" fill="none" stroke="#1d4ed8" stroke-width="2" marker-end="url(#arrow-block)" style="color: #1d4ed8"/><path d="M 940 1555.0 L 1080 1554.0" fill="none" stroke="#64748b" stroke-width="1.5" stroke-dasharray="2 4" marker-end="url(#arrow-open)" style="color: #64748b"/><text x="1080" y="1542.0" text-anchor="middle" dominant-baseline="central" font-family="sans-serif" font-size="11" fill="#111827">否</text><path d="M 830.0 1610 L 860.0 1660" fill="none" stroke="#1d4ed8" stroke-width="2" marker-end="url(#arrow-block)" style="color: #1d4ed8"/><text x="860.0" y="1648.0" text-anchor="middle" dominant-baseline="central" font-family="sans-serif" font-size="11" fill="#111827">是</text><path d="M 860.0 1748 L 830.0 1800" fill="none" stroke="#1d4ed8" stroke-width="2" marker-end="url(#arrow-block)" style="color: #1d4ed8"/><path d="M 940 1855.0 L 1080 1860.0" fill="none" stroke="#64748b" stroke-width="1.5" stroke-dasharray="2 4" marker-end="url(#arrow-open)" style="color: #64748b"/><text x="1080" y="1848.0" text-anchor="middle" dominant-baseline="central" font-family="sans-serif" font-size="11" fill="#111827">否</text><path d="M 830.0 1910 L 870.0 1960" fill="none" stroke="#1d4ed8" stroke-width="2" marker-end="url(#arrow-block)" style="color: #1d4ed8"/><text x="870.0" y="1948.0" text-anchor="middle" dominant-baseline="central" font-family="sans-serif" font-size="11" fill="#111827">是</text><path d="M 1020 2008.0 L 1120 2015.0" fill="none" stroke="#475569" stroke-width="1.5" stroke-dasharray="6 4" marker-end="url(#arrow-block)" style="color: #475569"/><text x="1120" y="2003.0" text-anchor="middle" dominant-baseline="central" font-family="sans-serif" font-size="11" fill="#111827">缺失 / 选不中</text><path d="M 870.0 2056 L 850.0 2120" fill="none" stroke="#1d4ed8" stroke-width="2" marker-end="url(#arrow-block)" style="color: #1d4ed8"/><text x="850.0" y="2108.0" text-anchor="middle" dominant-baseline="central" font-family="sans-serif" font-size="11" fill="#111827">选中的号码</text><path d="M 850.0 2208 L 840.0 2260" fill="none" stroke="#1d4ed8" stroke-width="2" marker-end="url(#arrow-block)" style="color: #1d4ed8"/><path d="M 960 2320.0 L 1080 2320.0" fill="none" stroke="#64748b" stroke-width="1.5" stroke-dasharray="2 4" marker-end="url(#arrow-open)" style="color: #64748b"/><text x="1080" y="2308.0" text-anchor="middle" dominant-baseline="central" font-family="sans-serif" font-size="11" fill="#111827">否</text><path d="M 840.0 2380 L 880.0 2430" fill="none" stroke="#1d4ed8" stroke-width="2" marker-end="url(#arrow-block)" style="color: #1d4ed8"/><text x="880.0" y="2418.0" text-anchor="middle" dominant-baseline="central" font-family="sans-serif" font-size="11" fill="#111827">是</text><path d="M 1040 2478.0 L 1460 2510.0" fill="none" stroke="#475569" stroke-width="1.5" stroke-dasharray="6 4" marker-end="url(#arrow-block)" style="color: #475569"/><text x="1460" y="2498.0" text-anchor="middle" dominant-baseline="central" font-family="sans-serif" font-size="11" fill="#111827">补偿 / 回写闭环</text><path d="M 880.0 2526 L 840.0 2580" fill="none" stroke="#1d4ed8" stroke-width="2" marker-end="url(#arrow-block)" style="color: #1d4ed8"/><path d="M 720 2640.0 L 660 2640.0 L 660 2714 L 720 2714 L 720 2788.0 L 660 2788.0" fill="none" stroke="#64748b" stroke-width="1.5" stroke-dasharray="2 4" marker-end="url(#arrow-open)" style="color: #64748b"/><text x="720" y="2702.0" text-anchor="middle" dominant-baseline="central" font-family="sans-serif" font-size="11" fill="#111827">ready 不足或并发未拿满</text><path d="M 960 2640.0 L 1020 2640.0 L 1020 2714 L 960 2714 L 960 2788.0 L 1020 2788.0" fill="none" stroke="#1d4ed8" stroke-width="2" marker-end="url(#arrow-block)" style="color: #1d4ed8"/><text x="960" y="2702.0" text-anchor="middle" dominant-baseline="central" font-family="sans-serif" font-size="11" fill="#111827">仍可继续</text><path d="M 1080 1114.0 L 1020 1114.0 L 1020 2027 L 1100 2027 L 1100 2940.0 L 1040 2940.0" fill="none" stroke="#1d4ed8" stroke-width="2" marker-end="url(#arrow-block)" style="color: #1d4ed8"/><path d="M 1080 1554.0 L 1020 1554.0 L 1020 2247 L 1100 2247 L 1100 2940.0 L 1040 2940.0" fill="none" stroke="#1d4ed8" stroke-width="2" marker-end="url(#arrow-block)" style="color: #1d4ed8"/><path d="M 1080 1860.0 L 1020 1860.0 L 1020 2400 L 1100 2400 L 1100 2940.0 L 1040 2940.0" fill="none" stroke="#1d4ed8" stroke-width="2" marker-end="url(#arrow-block)" style="color: #1d4ed8"/><path d="M 1080 2320.0 L 1020 2320.0 L 1020 2630 L 1100 2630 L 1100 2940.0 L 1040 2940.0" fill="none" stroke="#1d4ed8" stroke-width="2" marker-end="url(#arrow-block)" style="color: #1d4ed8"/><path d="M 660 2788.0 L 720 2788.0 L 720 2864 L 640 2864 L 640 2940.0 L 700 2940.0" fill="none" stroke="#1d4ed8" stroke-width="2" marker-end="url(#arrow-block)" style="color: #1d4ed8"/><path d="M 1020 2788.0 L 960 2788.0 L 960 2864 L 1100 2864 L 1100 2940.0 L 1040 2940.0" fill="none" stroke="#1d4ed8" stroke-width="2" marker-end="url(#arrow-block)" style="color: #1d4ed8"/></svg>