<svg xmlns="http://www.w3.org/2000/svg" width="2600" height="1700" viewBox="0 0 2600 1700"><defs><marker id="arrow-block" markerWidth="12" markerHeight="12" refX="10" refY="6" orient="auto" markerUnits="strokeWidth"><path d="M 0 0 L 12 6 L 0 12 z" fill="currentColor"/></marker><marker id="arrow-open" markerWidth="12" markerHeight="12" refX="10" refY="6" orient="auto" markerUnits="strokeWidth"><path d="M 0 0 L 12 6 L 0 12" fill="none" stroke="currentColor" stroke-width="1.5"/></marker></defs><rect x="0" y="0" width="2600" height="1700" fill="#ffffff"/><rect x="40" y="80" width="220" height="44" rx="12" fill="#dbeafe" stroke="#2563eb" stroke-width="1.5"/><text x="150" y="102" text-anchor="middle" dominant-baseline="central" font-family="sans-serif" font-size="12" font-weight="700" fill="#0f172a">CapacityProvider</text><line x1="150" y1="124" x2="150" y2="1560" stroke="#94a3b8" stroke-width="1" stroke-dasharray="8 8"/><rect x="340" y="80" width="220" height="44" rx="12" fill="#dbeafe" stroke="#2563eb" stroke-width="1.5"/><text x="450" y="102" text-anchor="middle" dominant-baseline="central" font-family="sans-serif" font-size="12" font-weight="700" fill="#0f172a">CapacityControlJob</text><line x1="450" y1="124" x2="450" y2="1560" stroke="#94a3b8" stroke-width="1" stroke-dasharray="8 8"/><rect x="640" y="80" width="220" height="44" rx="12" fill="#dbeafe" stroke="#2563eb" stroke-width="1.5"/><text x="750" y="102" text-anchor="middle" dominant-baseline="central" font-family="sans-serif" font-size="12" font-weight="700" fill="#0f172a">CapacityControlEngine</text><line x1="750" y1="124" x2="750" y2="1560" stroke="#94a3b8" stroke-width="1" stroke-dasharray="8 8"/><rect x="940" y="80" width="220" height="44" rx="12" fill="#dbeafe" stroke="#2563eb" stroke-width="1.5"/><text x="1050" y="102" text-anchor="middle" dominant-baseline="central" font-family="sans-serif" font-size="12" font-weight="700" fill="#0f172a">TaskTargetAllocator</text><line x1="1050" y1="124" x2="1050" y2="1560" stroke="#94a3b8" stroke-width="1" stroke-dasharray="8 8"/><rect x="1240" y="80" width="220" height="44" rx="12" fill="#dbeafe" stroke="#2563eb" stroke-width="1.5"/><text x="1350" y="102" text-anchor="middle" dominant-baseline="central" font-family="sans-serif" font-size="12" font-weight="700" fill="#0f172a">TaskTargetConcurrencyRegistry</text><line x1="1350" y1="124" x2="1350" y2="1560" stroke="#94a3b8" stroke-width="1" stroke-dasharray="8 8"/><rect x="1540" y="80" width="220" height="44" rx="12" fill="#dbeafe" stroke="#2563eb" stroke-width="1.5"/><text x="1650" y="102" text-anchor="middle" dominant-baseline="central" font-family="sans-serif" font-size="12" font-weight="700" fill="#0f172a">DispatchConcurrencyLimiter</text><line x1="1650" y1="124" x2="1650" y2="1560" stroke="#94a3b8" stroke-width="1" stroke-dasharray="8 8"/><rect x="1840" y="80" width="220" height="44" rx="12" fill="#dbeafe" stroke="#2563eb" stroke-width="1.5"/><text x="1950" y="102" text-anchor="middle" dominant-baseline="central" font-family="sans-serif" font-size="12" font-weight="700" fill="#0f172a">Redis Lua</text><line x1="1950" y1="124" x2="1950" y2="1560" stroke="#94a3b8" stroke-width="1" stroke-dasharray="8 8"/><rect x="2140" y="80" width="220" height="44" rx="12" fill="#dbeafe" stroke="#2563eb" stroke-width="1.5"/><text x="2250" y="102" text-anchor="middle" dominant-baseline="central" font-family="sans-serif" font-size="12" font-weight="700" fill="#0f172a">runPartition / Dispatcher</text><line x1="2250" y1="124" x2="2250" y2="1560" stroke="#94a3b8" stroke-width="1" stroke-dasharray="8 8"/><rect x="1480" y="1410" width="760" height="180" fill="#eff6ff" stroke="#60a5fa" stroke-width="1.5" rx="8"/><text x="1860" y="1438" text-anchor="middle" dominant-baseline="central" font-family="monospace" font-size="13" fill="#0f172a">granted = min(</text><text x="1860" y="1460" text-anchor="middle" dominant-baseline="central" font-family="monospace" font-size="13" fill="#0f172a">requested,</text><text x="1860" y="1482" text-anchor="middle" dominant-baseline="central" font-family="monospace" font-size="13" fill="#0f172a">availableGlobal,</text><text x="1860" y="1504" text-anchor="middle" dominant-baseline="central" font-family="monospace" font-size="13" fill="#0f172a">availablePool,</text><text x="1860" y="1526" text-anchor="middle" dominant-baseline="central" font-family="monospace" font-size="13" fill="#0f172a">availableTenant,</text><text x="1860" y="1548" text-anchor="middle" dominant-baseline="central" font-family="monospace" font-size="13" fill="#0f172a">availableTask,</text><text x="1860" y="1570" text-anchor="middle" dominant-baseline="central" font-family="monospace" font-size="13" fill="#0f172a">availableTaskTarget</text><text x="1860" y="1592" text-anchor="middle" dominant-baseline="central" font-family="monospace" font-size="13" fill="#0f172a">)</text><ellipse cx="150" cy="210" rx="4" ry="4" fill="#ffffff" stroke="#000000" stroke-width="1"/><ellipse cx="450" cy="210" rx="4" ry="4" fill="#ffffff" stroke="#000000" stroke-width="1"/><line x1="150" y1="210" x2="450" y2="210" stroke="#1d4ed8" stroke-width="2" marker-end="url(#arrow-block)" fill="none"/><text x="300" y="185" text-anchor="middle" dominant-baseline="auto" font-family="sans-serif" font-size="11" fill="#000000">snapshot()</text><text x="300" y="198" text-anchor="middle" dominant-baseline="auto" font-family="sans-serif" font-size="11" fill="#000000">返回池总量/已用量/利用率</text><ellipse cx="450" cy="280" rx="4" ry="4" fill="#ffffff" stroke="#000000" stroke-width="1"/><ellipse cx="1350" cy="280" rx="4" ry="4" fill="#ffffff" stroke="#000000" stroke-width="1"/><line x1="450" y1="280" x2="1350" y2="280" stroke="#1d4ed8" stroke-width="2" marker-end="url(#arrow-block)" fill="none"/><text x="900" y="268" text-anchor="middle" dominant-baseline="auto" font-family="sans-serif" font-size="11" fill="#000000">loadTaskTarget(tenantId, taskId)</text><ellipse cx="1350" cy="350" rx="4" ry="4" fill="#ffffff" stroke="#000000" stroke-width="1"/><ellipse cx="450" cy="350" rx="4" ry="4" fill="#ffffff" stroke="#000000" stroke-width="1"/><line x1="1350" y1="350" x2="450" y2="350" stroke="#475569" stroke-width="1.5" stroke-dasharray="6 4" marker-end="url(#arrow-block)" fill="none"/><text x="900" y="338" text-anchor="middle" dominant-baseline="auto" font-family="sans-serif" font-size="11" fill="#000000">当前 TaskTargetState</text><ellipse cx="450" cy="420" rx="4" ry="4" fill="#ffffff" stroke="#000000" stroke-width="1"/><ellipse cx="750" cy="420" rx="4" ry="4" fill="#ffffff" stroke="#000000" stroke-width="1"/><line x1="450" y1="420" x2="750" y2="420" stroke="#1d4ed8" stroke-width="2" marker-end="url(#arrow-block)" fill="none"/><text x="600" y="408" text-anchor="middle" dominant-baseline="auto" font-family="sans-serif" font-size="11" fill="#000000">decide(metrics, currentState, now)</text><ellipse cx="750" cy="490" rx="4" ry="4" fill="#ffffff" stroke="#000000" stroke-width="1"/><ellipse cx="450" cy="490" rx="4" ry="4" fill="#ffffff" stroke="#000000" stroke-width="1"/><line x1="750" y1="490" x2="450" y2="490" stroke="#475569" stroke-width="1.5" stroke-dasharray="6 4" marker-end="url(#arrow-block)" fill="none"/><text x="600" y="478" text-anchor="middle" dominant-baseline="auto" font-family="sans-serif" font-size="11" fill="#000000">desiredTarget</text><ellipse cx="450" cy="560" rx="4" ry="4" fill="#ffffff" stroke="#000000" stroke-width="1"/><ellipse cx="1050" cy="560" rx="4" ry="4" fill="#ffffff" stroke="#000000" stroke-width="1"/><line x1="450" y1="560" x2="1050" y2="560" stroke="#1d4ed8" stroke-width="2" marker-end="url(#arrow-block)" fill="none"/><text x="750" y="548" text-anchor="middle" dominant-baseline="auto" font-family="sans-serif" font-size="11" fill="#000000">allocate(poolTarget, candidates)</text><ellipse cx="1050" cy="630" rx="4" ry="4" fill="#ffffff" stroke="#000000" stroke-width="1"/><ellipse cx="450" cy="630" rx="4" ry="4" fill="#ffffff" stroke="#000000" stroke-width="1"/><line x1="1050" y1="630" x2="450" y2="630" stroke="#475569" stroke-width="1.5" stroke-dasharray="6 4" marker-end="url(#arrow-block)" fill="none"/><text x="750" y="618" text-anchor="middle" dominant-baseline="auto" font-family="sans-serif" font-size="11" fill="#000000">每个任务最终 targetConcurrency</text><ellipse cx="450" cy="700" rx="4" ry="4" fill="#ffffff" stroke="#000000" stroke-width="1"/><ellipse cx="1350" cy="700" rx="4" ry="4" fill="#ffffff" stroke="#000000" stroke-width="1"/><line x1="450" y1="700" x2="1350" y2="700" stroke="#1d4ed8" stroke-width="2" marker-end="url(#arrow-block)" fill="none"/><text x="900" y="688" text-anchor="middle" dominant-baseline="auto" font-family="sans-serif" font-size="11" fill="#000000">savePoolTarget(poolKey, poolTarget)</text><ellipse cx="450" cy="770" rx="4" ry="4" fill="#ffffff" stroke="#000000" stroke-width="1"/><ellipse cx="1350" cy="770" rx="4" ry="4" fill="#ffffff" stroke="#000000" stroke-width="1"/><line x1="450" y1="770" x2="1350" y2="770" stroke="#1d4ed8" stroke-width="2" marker-end="url(#arrow-block)" fill="none"/><text x="900" y="758" text-anchor="middle" dominant-baseline="auto" font-family="sans-serif" font-size="11" fill="#000000">saveTaskTarget(tenantId, taskId, TaskTargetState)</text><ellipse cx="2250" cy="840" rx="4" ry="4" fill="#ffffff" stroke="#000000" stroke-width="1"/><ellipse cx="1650" cy="840" rx="4" ry="4" fill="#ffffff" stroke="#000000" stroke-width="1"/><line x1="2250" y1="840" x2="1650" y2="840" stroke="#1d4ed8" stroke-width="2" marker-end="url(#arrow-block)" fill="none"/><text x="1950" y="828" text-anchor="middle" dominant-baseline="auto" font-family="sans-serif" font-size="11" fill="#000000">tryAcquireBatch(tenantId, taskId, taskMax, requested)</text><ellipse cx="1650" cy="910" rx="4" ry="4" fill="#ffffff" stroke="#000000" stroke-width="1"/><ellipse cx="1350" cy="910" rx="4" ry="4" fill="#ffffff" stroke="#000000" stroke-width="1"/><line x1="1650" y1="910" x2="1350" y2="910" stroke="#1d4ed8" stroke-width="2" marker-end="url(#arrow-block)" fill="none"/><text x="1500" y="898" text-anchor="middle" dominant-baseline="auto" font-family="sans-serif" font-size="11" fill="#000000">loadPoolTarget(poolKey)</text><ellipse cx="1350" cy="980" rx="4" ry="4" fill="#ffffff" stroke="#000000" stroke-width="1"/><ellipse cx="1650" cy="980" rx="4" ry="4" fill="#ffffff" stroke="#000000" stroke-width="1"/><line x1="1350" y1="980" x2="1650" y2="980" stroke="#475569" stroke-width="1.5" stroke-dasharray="6 4" marker-end="url(#arrow-block)" fill="none"/><text x="1500" y="968" text-anchor="middle" dominant-baseline="auto" font-family="sans-serif" font-size="11" fill="#000000">PoolTarget</text><ellipse cx="1650" cy="1050" rx="4" ry="4" fill="#ffffff" stroke="#000000" stroke-width="1"/><ellipse cx="1350" cy="1050" rx="4" ry="4" fill="#ffffff" stroke="#000000" stroke-width="1"/><line x1="1650" y1="1050" x2="1350" y2="1050" stroke="#1d4ed8" stroke-width="2" marker-end="url(#arrow-block)" fill="none"/><text x="1500" y="1038" text-anchor="middle" dominant-baseline="auto" font-family="sans-serif" font-size="11" fill="#000000">loadTaskTarget(tenantId, taskId)</text><ellipse cx="1350" cy="1120" rx="4" ry="4" fill="#ffffff" stroke="#000000" stroke-width="1"/><ellipse cx="1650" cy="1120" rx="4" ry="4" fill="#ffffff" stroke="#000000" stroke-width="1"/><line x1="1350" y1="1120" x2="1650" y2="1120" stroke="#475569" stroke-width="1.5" stroke-dasharray="6 4" marker-end="url(#arrow-block)" fill="none"/><text x="1500" y="1108" text-anchor="middle" dominant-baseline="auto" font-family="sans-serif" font-size="11" fill="#000000">TaskTargetState.targetConcurrency</text><ellipse cx="1650" cy="1190" rx="4" ry="4" fill="#ffffff" stroke="#000000" stroke-width="1"/><ellipse cx="1950" cy="1190" rx="4" ry="4" fill="#ffffff" stroke="#000000" stroke-width="1"/><line x1="1650" y1="1190" x2="1950" y2="1190" stroke="#1d4ed8" stroke-width="2" marker-end="url(#arrow-block)" fill="none"/><text x="1800" y="1178" text-anchor="middle" dominant-baseline="auto" font-family="sans-serif" font-size="11" fill="#000000">执行原子限流脚本</text><ellipse cx="1950" cy="1260" rx="4" ry="4" fill="#ffffff" stroke="#000000" stroke-width="1"/><ellipse cx="1650" cy="1260" rx="4" ry="4" fill="#ffffff" stroke="#000000" stroke-width="1"/><line x1="1950" y1="1260" x2="1650" y2="1260" stroke="#475569" stroke-width="1.5" stroke-dasharray="6 4" marker-end="url(#arrow-block)" fill="none"/><text x="1800" y="1248" text-anchor="middle" dominant-baseline="auto" font-family="sans-serif" font-size="11" fill="#000000">granted</text><ellipse cx="1650" cy="1330" rx="4" ry="4" fill="#ffffff" stroke="#000000" stroke-width="1"/><ellipse cx="2250" cy="1330" rx="4" ry="4" fill="#ffffff" stroke="#000000" stroke-width="1"/><line x1="1650" y1="1330" x2="2250" y2="1330" stroke="#64748b" stroke-width="1.5" stroke-dasharray="2 4" marker-end="url(#arrow-open)" fill="none"/><text x="1950" y="1318" text-anchor="middle" dominant-baseline="auto" font-family="sans-serif" font-size="11" fill="#000000">granted &gt; 0：允许派发</text><ellipse cx="1650" cy="1400" rx="4" ry="4" fill="#ffffff" stroke="#000000" stroke-width="1"/><ellipse cx="2250" cy="1400" rx="4" ry="4" fill="#ffffff" stroke="#000000" stroke-width="1"/><line x1="1650" y1="1400" x2="2250" y2="1400" stroke="#64748b" stroke-width="1.5" stroke-dasharray="2 4" marker-end="url(#arrow-open)" fill="none"/><text x="1950" y="1388" text-anchor="middle" dominant-baseline="auto" font-family="sans-serif" font-size="11" fill="#000000">granted &lt;= 0：并发受限</text></svg>
