<svg xmlns="http://www.w3.org/2000/svg" width="2200" height="2480" viewBox="0 0 2200 2480"><defs><marker id="arrow-block" markerWidth="12" markerHeight="12" refX="10" refY="6" orient="auto" markerUnits="strokeWidth"><path d="M 0 0 L 12 6 L 0 12 z" fill="currentColor"/></marker><marker id="arrow-open" markerWidth="12" markerHeight="12" refX="10" refY="6" orient="auto" markerUnits="strokeWidth"><path d="M 0 0 L 12 6 L 0 12" fill="none" stroke="currentColor" stroke-width="1.5"/></marker></defs><rect x="0" y="0" width="2200" height="2480" fill="#ffffff"/><rect x="760" y="40" width="300" height="80" rx="28" fill="#f8fafc" stroke="#64748b" stroke-width="1.5"/><text x="910.0" y="72.0" text-anchor="middle" dominant-baseline="central" font-family="sans-serif" font-size="12" fill="#0f172a">runPartition 进入</text><text x="910.0" y="88.0" text-anchor="middle" dominant-baseline="central" font-family="sans-serif" font-size="12" fill="#0f172a">并发申请阶段</text><path d="M 1260 130 H 1656 L 1680 154 V 240 H 1260 Z" fill="#ffffff" stroke="#94a3b8" stroke-width="1.5"/><line x1="1656" y1="130" x2="1656" y2="154" stroke="#94a3b8" stroke-width="1"/><line x1="1656" y1="154" x2="1680" y2="154" stroke="#94a3b8" stroke-width="1"/><text x="1470.0" y="177.0" text-anchor="middle" dominant-baseline="central" font-family="sans-serif" font-size="12" fill="#0f172a">前置来源：CapacityControlJob 已把</text><text x="1470.0" y="193.0" text-anchor="middle" dominant-baseline="central" font-family="sans-serif" font-size="12" fill="#0f172a">poolTarget / taskTarget 写入 Redis</text><rect x="720" y="170" width="360" height="96" rx="16" fill="#dbeafe" stroke="#2563eb" stroke-width="1.5"/><text x="900.0" y="210.0" text-anchor="middle" dominant-baseline="central" font-family="sans-serif" font-size="12" fill="#0f172a">requested = min(dispatchBatchSize,</text><text x="900.0" y="226.0" text-anchor="middle" dominant-baseline="central" font-family="sans-serif" font-size="12" fill="#0f172a">task.maxConcurrency)</text><polygon points="900.0,320 1000,375.0 900.0,430 800,375.0" fill="#fef3c7" stroke="#d97706" stroke-width="1.5"/><text x="900.0" y="367.0" text-anchor="middle" dominant-baseline="central" font-family="sans-serif" font-size="12" fill="#0f172a">requested</text><text x="900.0" y="383.0" text-anchor="middle" dominant-baseline="central" font-family="sans-serif" font-size="12" fill="#0f172a">是否大于 0</text><rect x="1140" y="330" width="220" height="88" rx="16" fill="#dbeafe" stroke="#2563eb" stroke-width="1.5"/><text x="1250.0" y="374.0" text-anchor="middle" dominant-baseline="central" font-family="sans-serif" font-size="12" fill="#0f172a">直接返回 0</text><rect x="720" y="470" width="360" height="96" rx="16" fill="#dbeafe" stroke="#2563eb" stroke-width="1.5"/><text x="900.0" y="510.0" text-anchor="middle" dominant-baseline="central" font-family="sans-serif" font-size="12" fill="#0f172a">loadPoolTarget(poolKey)</text><text x="900.0" y="526.0" text-anchor="middle" dominant-baseline="central" font-family="sans-serif" font-size="12" fill="#0f172a">取不到则用 poolHardMax</text><rect x="720" y="610" width="360" height="96" rx="16" fill="#dbeafe" stroke="#2563eb" stroke-width="1.5"/><text x="900.0" y="650.0" text-anchor="middle" dominant-baseline="central" font-family="sans-serif" font-size="12" fill="#0f172a">loadTaskTarget(taskId)</text><text x="900.0" y="666.0" text-anchor="middle" dominant-baseline="central" font-family="sans-serif" font-size="12" fill="#0f172a">取不到则用 taskMaxConcurrency</text><rect x="770" y="750" width="260" height="88" rx="16" fill="#dbeafe" stroke="#2563eb" stroke-width="1.5"/><text x="900.0" y="794.0" text-anchor="middle" dominant-baseline="central" font-family="sans-serif" font-size="12" fill="#0f172a">执行 acquireBatch Lua</text><rect x="710" y="880" width="380" height="96" rx="16" fill="#dbeafe" stroke="#2563eb" stroke-width="1.5"/><text x="900.0" y="920.0" text-anchor="middle" dominant-baseline="central" font-family="sans-serif" font-size="12" fill="#0f172a">读取 currentGlobal / currentPool /</text><text x="900.0" y="936.0" text-anchor="middle" dominant-baseline="central" font-family="sans-serif" font-size="12" fill="#0f172a">currentTenant / currentTask</text><rect x="690" y="1020" width="420" height="112" rx="16" fill="#dbeafe" stroke="#2563eb" stroke-width="1.5"/><text x="900.0" y="1060.0" text-anchor="middle" dominant-baseline="central" font-family="sans-serif" font-size="12" fill="#0f172a">计算 availableGlobal / availablePool /</text><text x="900.0" y="1076.0" text-anchor="middle" dominant-baseline="central" font-family="sans-serif" font-size="12" fill="#0f172a">availableTenant / availableTask /</text><text x="900.0" y="1092.0" text-anchor="middle" dominant-baseline="central" font-family="sans-serif" font-size="12" fill="#0f172a">availableTaskTarget</text><rect x="690" y="1170" width="420" height="120" rx="16" fill="#dbeafe" stroke="#2563eb" stroke-width="1.5"/><text x="900.0" y="1206.0" text-anchor="middle" dominant-baseline="central" font-family="sans-serif" font-size="12" fill="#0f172a">granted = min(requested,</text><text x="900.0" y="1222.0" text-anchor="middle" dominant-baseline="central" font-family="sans-serif" font-size="12" fill="#0f172a">availableGlobal, availablePool,</text><text x="900.0" y="1238.0" text-anchor="middle" dominant-baseline="central" font-family="sans-serif" font-size="12" fill="#0f172a">availableTenant, availableTask,</text><text x="900.0" y="1254.0" text-anchor="middle" dominant-baseline="central" font-family="sans-serif" font-size="12" fill="#0f172a">availableTaskTarget)</text><polygon points="900.0,1340 1000,1395.0 900.0,1450 800,1395.0" fill="#fef3c7" stroke="#d97706" stroke-width="1.5"/><text x="900.0" y="1387.0" text-anchor="middle" dominant-baseline="central" font-family="sans-serif" font-size="12" fill="#0f172a">granted</text><text x="900.0" y="1403.0" text-anchor="middle" dominant-baseline="central" font-family="sans-serif" font-size="12" fill="#0f172a">是否大于 0</text><rect x="1100" y="1350" width="360" height="112" rx="16" fill="#dbeafe" stroke="#2563eb" stroke-width="1.5"/><text x="1280.0" y="1390.0" text-anchor="middle" dominant-baseline="central" font-family="sans-serif" font-size="12" fill="#0f172a">recordRejectReason</text><text x="1280.0" y="1406.0" text-anchor="middle" dominant-baseline="central" font-family="sans-serif" font-size="12" fill="#0f172a">按 global -&gt; tenant -&gt; pool -&gt;</text><text x="1280.0" y="1422.0" text-anchor="middle" dominant-baseline="central" font-family="sans-serif" font-size="12" fill="#0f172a">taskStatic -&gt; taskTarget 记录指标</text><rect x="1130" y="1510" width="300" height="96" rx="16" fill="#dbeafe" stroke="#2563eb" stroke-width="1.5"/><text x="1280.0" y="1550.0" text-anchor="middle" dominant-baseline="central" font-family="sans-serif" font-size="12" fill="#0f172a">返回 0</text><text x="1280.0" y="1566.0" text-anchor="middle" dominant-baseline="central" font-family="sans-serif" font-size="12" fill="#0f172a">runPartition 里 block(CONCURRENCY_FULL)</text><rect x="720" y="1510" width="360" height="96" rx="16" fill="#dbeafe" stroke="#2563eb" stroke-width="1.5"/><text x="900.0" y="1550.0" text-anchor="middle" dominant-baseline="central" font-family="sans-serif" font-size="12" fill="#0f172a">对 global / pool / tenant / task</text><text x="900.0" y="1566.0" text-anchor="middle" dominant-baseline="central" font-family="sans-serif" font-size="12" fill="#0f172a">四个 busy key INCRBY(granted)</text><rect x="770" y="1640" width="260" height="88" rx="16" fill="#dbeafe" stroke="#2563eb" stroke-width="1.5"/><text x="900.0" y="1684.0" text-anchor="middle" dominant-baseline="central" font-family="sans-serif" font-size="12" fill="#0f172a">刷新四个 key 的 TTL</text><rect x="790" y="1770" width="220" height="88" rx="16" fill="#dbeafe" stroke="#2563eb" stroke-width="1.5"/><text x="900.0" y="1814.0" text-anchor="middle" dominant-baseline="central" font-family="sans-serif" font-size="12" fill="#0f172a">返回 granted</text><rect x="710" y="1900" width="380" height="96" rx="16" fill="#dbeafe" stroke="#2563eb" stroke-width="1.5"/><text x="900.0" y="1948.0" text-anchor="middle" dominant-baseline="central" font-family="sans-serif" font-size="12" fill="#0f172a">runPartition 用 granted 去 claimReady</text><polygon points="900.0,2050 1000,2105.0 900.0,2160 800,2105.0" fill="#fef3c7" stroke="#d97706" stroke-width="1.5"/><text x="900.0" y="2097.0" text-anchor="middle" dominant-baseline="central" font-family="sans-serif" font-size="12" fill="#0f172a">实际消耗</text><text x="900.0" y="2113.0" text-anchor="middle" dominant-baseline="central" font-family="sans-serif" font-size="12" fill="#0f172a">是否小于 granted</text><rect x="1100" y="2060" width="360" height="112" rx="16" fill="#dbeafe" stroke="#2563eb" stroke-width="1.5"/><text x="1280.0" y="2100.0" text-anchor="middle" dominant-baseline="central" font-family="sans-serif" font-size="12" fill="#0f172a">releaseBatch 差额</text><text x="1280.0" y="2116.0" text-anchor="middle" dominant-baseline="central" font-family="sans-serif" font-size="12" fill="#0f172a">如 ids.size &lt; granted 或</text><text x="1280.0" y="2132.0" text-anchor="middle" dominant-baseline="central" font-family="sans-serif" font-size="12" fill="#0f172a">DB 迁移少于 selected</text><path d="M 700 2210 H 1076 L 1100 2234 V 2330 H 700 Z" fill="#ffffff" stroke="#94a3b8" stroke-width="1.5"/><line x1="1076" y1="2210" x2="1076" y2="2234" stroke="#94a3b8" stroke-width="1"/><line x1="1076" y1="2234" x2="1100" y2="2234" stroke="#94a3b8" stroke-width="1"/><text x="900.0" y="2262.0" text-anchor="middle" dominant-baseline="central" font-family="sans-serif" font-size="12" fill="#0f172a">后续由 ids / units / requested 对比</text><text x="900.0" y="2278.0" text-anchor="middle" dominant-baseline="central" font-family="sans-serif" font-size="12" fill="#0f172a">决定 EMPTY、CONCURRENCY_FULL 或 reactivate</text><rect x="730" y="2380" width="340" height="80" rx="28" fill="#f8fafc" stroke="#64748b" stroke-width="1.5"/><text x="900.0" y="2420.0" text-anchor="middle" dominant-baseline="central" font-family="sans-serif" font-size="12" fill="#0f172a">granted 影响本轮可派发的最大批量</text><path d="M 910.0 120 L 900.0 170" fill="none" stroke="#1d4ed8" stroke-width="2" marker-end="url(#arrow-block)" style="color: #1d4ed8"/><path d="M 1260 185.0 L 1200 185.0 L 1200 352 L 1140 352 L 1140 518.0 L 1080 518.0" fill="none" stroke="#475569" stroke-width="1.5" stroke-dasharray="6 4" marker-end="url(#arrow-block)" style="color: #475569"/><text x="1140" y="340.0" text-anchor="middle" dominant-baseline="central" font-family="sans-serif" font-size="11" fill="#111827">读取 poolTarget 来源</text><path d="M 1260 185.0 L 1200 185.0 L 1200 422 L 1140 422 L 1140 658.0 L 1080 658.0" fill="none" stroke="#475569" stroke-width="1.5" stroke-dasharray="6 4" marker-end="url(#arrow-block)" style="color: #475569"/><text x="1140" y="410.0" text-anchor="middle" dominant-baseline="central" font-family="sans-serif" font-size="11" fill="#111827">读取 taskTarget 来源</text><path d="M 900.0 266 L 900.0 320" fill="none" stroke="#1d4ed8" stroke-width="2" marker-end="url(#arrow-block)" style="color: #1d4ed8"/><path d="M 1000 375.0 L 1140 374.0" fill="none" stroke="#64748b" stroke-width="1.5" stroke-dasharray="2 4" marker-end="url(#arrow-open)" style="color: #64748b"/><text x="1140" y="362.0" text-anchor="middle" dominant-baseline="central" font-family="sans-serif" font-size="11" fill="#111827">否</text><path d="M 900.0 430 L 900.0 470" fill="none" stroke="#1d4ed8" stroke-width="2" marker-end="url(#arrow-block)" style="color: #1d4ed8"/><text x="900.0" y="458.0" text-anchor="middle" dominant-baseline="central" font-family="sans-serif" font-size="11" fill="#111827">是</text><path d="M 900.0 566 L 900.0 610" fill="none" stroke="#1d4ed8" stroke-width="2" marker-end="url(#arrow-block)" style="color: #1d4ed8"/><path d="M 900.0 706 L 900.0 750" fill="none" stroke="#1d4ed8" stroke-width="2" marker-end="url(#arrow-block)" style="color: #1d4ed8"/><path d="M 900.0 838 L 900.0 880" fill="none" stroke="#1d4ed8" stroke-width="2" marker-end="url(#arrow-block)" style="color: #1d4ed8"/><path d="M 900.0 976 L 900.0 1020" fill="none" stroke="#1d4ed8" stroke-width="2" marker-end="url(#arrow-block)" style="color: #1d4ed8"/><path d="M 900.0 1132 L 900.0 1170" fill="none" stroke="#1d4ed8" stroke-width="2" marker-end="url(#arrow-block)" style="color: #1d4ed8"/><path d="M 900.0 1290 L 900.0 1340" fill="none" stroke="#1d4ed8" stroke-width="2" marker-end="url(#arrow-block)" style="color: #1d4ed8"/><path d="M 1000 1395.0 L 1100 1406.0" fill="none" stroke="#64748b" stroke-width="1.5" stroke-dasharray="2 4" marker-end="url(#arrow-open)" style="color: #64748b"/><text x="1100" y="1394.0" text-anchor="middle" dominant-baseline="central" font-family="sans-serif" font-size="11" fill="#111827">否</text><path d="M 1280.0 1462 L 1280.0 1510" fill="none" stroke="#1d4ed8" stroke-width="2" marker-end="url(#arrow-block)" style="color: #1d4ed8"/><path d="M 900.0 1450 L 900.0 1510" fill="none" stroke="#1d4ed8" stroke-width="2" marker-end="url(#arrow-block)" style="color: #1d4ed8"/><text x="900.0" y="1498.0" text-anchor="middle" dominant-baseline="central" font-family="sans-serif" font-size="11" fill="#111827">是</text><path d="M 900.0 1606 L 900.0 1640" fill="none" stroke="#1d4ed8" stroke-width="2" marker-end="url(#arrow-block)" style="color: #1d4ed8"/><path d="M 900.0 1728 L 900.0 1770" fill="none" stroke="#1d4ed8" stroke-width="2" marker-end="url(#arrow-block)" style="color: #1d4ed8"/><path d="M 900.0 1858 L 900.0 1900" fill="none" stroke="#1d4ed8" stroke-width="2" marker-end="url(#arrow-block)" style="color: #1d4ed8"/><path d="M 900.0 1996 L 900.0 2050" fill="none" stroke="#1d4ed8" stroke-width="2" marker-end="url(#arrow-block)" style="color: #1d4ed8"/><path d="M 1000 2105.0 L 1100 2116.0" fill="none" stroke="#64748b" stroke-width="1.5" stroke-dasharray="2 4" marker-end="url(#arrow-open)" style="color: #64748b"/><text x="1100" y="2104.0" text-anchor="middle" dominant-baseline="central" font-family="sans-serif" font-size="11" fill="#111827">是</text><path d="M 900.0 2160 L 900.0 2210" fill="none" stroke="#1d4ed8" stroke-width="2" marker-end="url(#arrow-block)" style="color: #1d4ed8"/><text x="900.0" y="2198.0" text-anchor="middle" dominant-baseline="central" font-family="sans-serif" font-size="11" fill="#111827">否</text><path d="M 1100 2116.0 L 1040 2116.0 L 1040 2193 L 1160 2193 L 1160 2270.0 L 1100 2270.0" fill="none" stroke="#1d4ed8" stroke-width="2" marker-end="url(#arrow-block)" style="color: #1d4ed8"/><path d="M 1140 374.0 L 1080 374.0 L 1080 1397 L 1130 1397 L 1130 2420.0 L 1070 2420.0" fill="none" stroke="#475569" stroke-width="1.5" stroke-dasharray="6 4" marker-end="url(#arrow-block)" style="color: #475569"/><text x="1130" y="1385.0" text-anchor="middle" dominant-baseline="central" font-family="sans-serif" font-size="11" fill="#111827">granted = 0</text><path d="M 1130 1558.0 L 1070 1558.0 L 1070 1989 L 1130 1989 L 1130 2420.0 L 1070 2420.0" fill="none" stroke="#475569" stroke-width="1.5" stroke-dasharray="6 4" marker-end="url(#arrow-block)" style="color: #475569"/><text x="1130" y="1977.0" text-anchor="middle" dominant-baseline="central" font-family="sans-serif" font-size="11" fill="#111827">granted = 0</text><path d="M 900.0 2330 L 900.0 2380" fill="none" stroke="#1d4ed8" stroke-width="2" marker-end="url(#arrow-block)" style="color: #1d4ed8"/></svg>