<svg xmlns="http://www.w3.org/2000/svg" width="2200" height="3020" viewBox="0 0 2200 3020"><defs><marker id="arrow-block" markerWidth="12" markerHeight="12" refX="10" refY="6" orient="auto" markerUnits="strokeWidth"><path d="M 0 0 L 12 6 L 0 12 z" fill="currentColor"/></marker><marker id="arrow-open" markerWidth="12" markerHeight="12" refX="10" refY="6" orient="auto" markerUnits="strokeWidth"><path d="M 0 0 L 12 6 L 0 12" fill="none" stroke="currentColor" stroke-width="1.5"/></marker></defs><rect x="0" y="0" width="2200" height="3020" fill="#ffffff"/><rect x="760" y="40" width="280" height="72" rx="28" fill="#f8fafc" stroke="#64748b" stroke-width="1.5"/><text x="900.0" y="76.0" text-anchor="middle" dominant-baseline="central" font-family="sans-serif" font-size="12" fill="#0f172a">runPartition 已领取 claimedUnits</text><rect x="760" y="160" width="280" height="88" rx="16" fill="#dbeafe" stroke="#2563eb" stroke-width="1.5"/><text x="900.0" y="204.0" text-anchor="middle" dominant-baseline="central" font-family="sans-serif" font-size="12" fill="#0f172a">task -&gt; TaskCallerIdPolicy</text><rect x="760" y="280" width="280" height="88" rx="16" fill="#dbeafe" stroke="#2563eb" stroke-width="1.5"/><text x="900.0" y="324.0" text-anchor="middle" dominant-baseline="central" font-family="sans-serif" font-size="12" fill="#0f172a">读取任务绑定关系</text><rect x="760" y="400" width="280" height="96" rx="16" fill="#dbeafe" stroke="#2563eb" stroke-width="1.5"/><text x="900.0" y="440.0" text-anchor="middle" dominant-baseline="central" font-family="sans-serif" font-size="12" fill="#0f172a">拆分 ALLOW boost</text><text x="900.0" y="456.0" text-anchor="middle" dominant-baseline="central" font-family="sans-serif" font-size="12" fill="#0f172a">和 DENY 黑名单</text><polygon points="900.0,540 1000,595.0 900.0,650 800,595.0" fill="#fef3c7" stroke="#d97706" stroke-width="1.5"/><text x="900.0" y="587.0" text-anchor="middle" dominant-baseline="central" font-family="sans-serif" font-size="12" fill="#0f172a">callerIdMode</text><text x="900.0" y="603.0" text-anchor="middle" dominant-baseline="central" font-family="sans-serif" font-size="12" fill="#0f172a">是什么</text><rect x="420" y="700" width="260" height="96" rx="16" fill="#dbeafe" stroke="#2563eb" stroke-width="1.5"/><text x="550.0" y="740.0" text-anchor="middle" dominant-baseline="central" font-family="sans-serif" font-size="12" fill="#0f172a">纳入共享池</text><text x="550.0" y="756.0" text-anchor="middle" dominant-baseline="central" font-family="sans-serif" font-size="12" fill="#0f172a">SHARED CallerId</text><rect x="1120" y="700" width="260" height="96" rx="16" fill="#dbeafe" stroke="#2563eb" stroke-width="1.5"/><text x="1250.0" y="740.0" text-anchor="middle" dominant-baseline="central" font-family="sans-serif" font-size="12" fill="#0f172a">纳入任务白名单</text><text x="1250.0" y="756.0" text-anchor="middle" dominant-baseline="central" font-family="sans-serif" font-size="12" fill="#0f172a">CallerId</text><rect x="770" y="860" width="260" height="96" rx="16" fill="#dbeafe" stroke="#2563eb" stroke-width="1.5"/><text x="900.0" y="900.0" text-anchor="middle" dominant-baseline="central" font-family="sans-serif" font-size="12" fill="#0f172a">过滤 inactive / deny /</text><text x="900.0" y="916.0" text-anchor="middle" dominant-baseline="central" font-family="sans-serif" font-size="12" fill="#0f172a">cooldown / 空 id</text><rect x="770" y="990" width="260" height="88" rx="16" fill="#dbeafe" stroke="#2563eb" stroke-width="1.5"/><text x="900.0" y="1026.0" text-anchor="middle" dominant-baseline="central" font-family="sans-serif" font-size="12" fill="#0f172a">得到 candidates</text><text x="900.0" y="1042.0" text-anchor="middle" dominant-baseline="central" font-family="sans-serif" font-size="12" fill="#0f172a">候选号池</text><rect x="740" y="1120" width="320" height="96" rx="16" fill="#dbeafe" stroke="#2563eb" stroke-width="1.5"/><text x="900.0" y="1160.0" text-anchor="middle" dominant-baseline="central" font-family="sans-serif" font-size="12" fill="#0f172a">按 claimedUnits 的 retryCount</text><text x="900.0" y="1176.0" text-anchor="middle" dominant-baseline="central" font-family="sans-serif" font-size="12" fill="#0f172a">映射 AttemptStage</text><rect x="770" y="1260" width="260" height="88" rx="16" fill="#dbeafe" stroke="#2563eb" stroke-width="1.5"/><text x="900.0" y="1296.0" text-anchor="middle" dominant-baseline="central" font-family="sans-serif" font-size="12" fill="#0f172a">按阶段批量加载</text><text x="900.0" y="1312.0" text-anchor="middle" dominant-baseline="central" font-family="sans-serif" font-size="12" fill="#0f172a">callerId stats</text><rect x="770" y="1390" width="260" height="88" rx="16" fill="#dbeafe" stroke="#2563eb" stroke-width="1.5"/><text x="900.0" y="1434.0" text-anchor="middle" dominant-baseline="central" font-family="sans-serif" font-size="12" fill="#0f172a">遍历每个 claimedUnit</text><polygon points="900.0,1520 1000,1575.0 900.0,1630 800,1575.0" fill="#fef3c7" stroke="#d97706" stroke-width="1.5"/><text x="900.0" y="1567.0" text-anchor="middle" dominant-baseline="central" font-family="sans-serif" font-size="12" fill="#0f172a">当前号码是否有候选</text><text x="900.0" y="1583.0" text-anchor="middle" dominant-baseline="central" font-family="sans-serif" font-size="12" fill="#0f172a">CallerId</text><rect x="1120" y="1530" width="280" height="96" rx="16" fill="#dbeafe" stroke="#2563eb" stroke-width="1.5"/><text x="1260.0" y="1570.0" text-anchor="middle" dominant-baseline="central" font-family="sans-serif" font-size="12" fill="#0f172a">selection 为空</text><text x="1260.0" y="1586.0" text-anchor="middle" dominant-baseline="central" font-family="sans-serif" font-size="12" fill="#0f172a">加入 rejectedUnits</text><rect x="740" y="1670" width="320" height="96" rx="16" fill="#dbeafe" stroke="#2563eb" stroke-width="1.5"/><text x="900.0" y="1710.0" text-anchor="middle" dominant-baseline="central" font-family="sans-serif" font-size="12" fill="#0f172a">取 stats + policy + candidate</text><text x="900.0" y="1726.0" text-anchor="middle" dominant-baseline="central" font-family="sans-serif" font-size="12" fill="#0f172a">准备打分因子</text><rect x="700" y="1810" width="400" height="136" rx="16" fill="#dbeafe" stroke="#2563eb" stroke-width="1.5"/><text x="900.0" y="1854.0" text-anchor="middle" dominant-baseline="central" font-family="sans-serif" font-size="12" fill="#0f172a">计算 score</text><text x="900.0" y="1870.0" text-anchor="middle" dominant-baseline="central" font-family="sans-serif" font-size="12" fill="#0f172a">answerRate / successRate /</text><text x="900.0" y="1886.0" text-anchor="middle" dominant-baseline="central" font-family="sans-serif" font-size="12" fill="#0f172a">conversionProxy / trust / cost /</text><text x="900.0" y="1902.0" text-anchor="middle" dominant-baseline="central" font-family="sans-serif" font-size="12" fill="#0f172a">priorityBoost / exposurePenalty / failurePenalty</text><rect x="770" y="1990" width="260" height="96" rx="16" fill="#dbeafe" stroke="#2563eb" stroke-width="1.5"/><text x="900.0" y="2030.0" text-anchor="middle" dominant-baseline="central" font-family="sans-serif" font-size="12" fill="#0f172a">取 score 最大的</text><text x="900.0" y="2046.0" text-anchor="middle" dominant-baseline="central" font-family="sans-serif" font-size="12" fill="#0f172a">CallerIdSelection</text><polygon points="900.0,2130 1000,2185.0 900.0,2240 800,2185.0" fill="#fef3c7" stroke="#d97706" stroke-width="1.5"/><text x="900.0" y="2177.0" text-anchor="middle" dominant-baseline="central" font-family="sans-serif" font-size="12" fill="#0f172a">是否选中</text><text x="900.0" y="2193.0" text-anchor="middle" dominant-baseline="central" font-family="sans-serif" font-size="12" fill="#0f172a">CallerId</text><rect x="1120" y="2140" width="260" height="96" rx="16" fill="#dbeafe" stroke="#2563eb" stroke-width="1.5"/><text x="1250.0" y="2180.0" text-anchor="middle" dominant-baseline="central" font-family="sans-serif" font-size="12" fill="#0f172a">仍为空</text><text x="1250.0" y="2196.0" text-anchor="middle" dominant-baseline="central" font-family="sans-serif" font-size="12" fill="#0f172a">加入 rejectedUnits</text><rect x="700" y="2280" width="400" height="112" rx="16" fill="#dbeafe" stroke="#2563eb" stroke-width="1.5"/><text x="900.0" y="2320.0" text-anchor="middle" dominant-baseline="central" font-family="sans-serif" font-size="12" fill="#0f172a">回填 dispatchToken / selectedCallerId /</text><text x="900.0" y="2336.0" text-anchor="middle" dominant-baseline="central" font-family="sans-serif" font-size="12" fill="#0f172a">selectedCallerNumber / score /</text><text x="900.0" y="2352.0" text-anchor="middle" dominant-baseline="central" font-family="sans-serif" font-size="12" fill="#0f172a">reason / attemptStage</text><rect x="770" y="2430" width="260" height="88" rx="16" fill="#dbeafe" stroke="#2563eb" stroke-width="1.5"/><text x="900.0" y="2474.0" text-anchor="middle" dominant-baseline="central" font-family="sans-serif" font-size="12" fill="#0f172a">加入 selectedUnits</text><path d="M 750 2570 H 1026 L 1050 2594 V 2690 H 750 Z" fill="#ffffff" stroke="#94a3b8" stroke-width="1.5"/><line x1="1026" y1="2570" x2="1026" y2="2594" stroke="#94a3b8" stroke-width="1"/><line x1="1026" y1="2594" x2="1050" y2="2594" stroke="#94a3b8" stroke-width="1"/><text x="900.0" y="2614.0" text-anchor="middle" dominant-baseline="central" font-family="sans-serif" font-size="12" fill="#0f172a">循环结束后</text><text x="900.0" y="2630.0" text-anchor="middle" dominant-baseline="central" font-family="sans-serif" font-size="12" fill="#0f172a">rejectedUnits 回退 ready</text><text x="900.0" y="2646.0" text-anchor="middle" dominant-baseline="central" font-family="sans-serif" font-size="12" fill="#0f172a">并 release 并发</text><rect x="770" y="2730" width="260" height="96" rx="16" fill="#dbeafe" stroke="#2563eb" stroke-width="1.5"/><text x="900.0" y="2770.0" text-anchor="middle" dominant-baseline="central" font-family="sans-serif" font-size="12" fill="#0f172a">selectedUnits 进入</text><text x="900.0" y="2786.0" text-anchor="middle" dominant-baseline="central" font-family="sans-serif" font-size="12" fill="#0f172a">READY -&gt; DIALING</text><rect x="730" y="2870" width="340" height="80" rx="28" fill="#f8fafc" stroke="#64748b" stroke-width="1.5"/><text x="900.0" y="2902.0" text-anchor="middle" dominant-baseline="central" font-family="sans-serif" font-size="12" fill="#0f172a">进入异步下发前</text><text x="900.0" y="2918.0" text-anchor="middle" dominant-baseline="central" font-family="sans-serif" font-size="12" fill="#0f172a">号码已带选中的 CallerId 信息</text><path d="M 900.0 112 L 900.0 160" fill="none" stroke="#1d4ed8" stroke-width="2" marker-end="url(#arrow-block)" style="color: #1d4ed8"/><path d="M 900.0 248 L 900.0 280" fill="none" stroke="#1d4ed8" stroke-width="2" marker-end="url(#arrow-block)" style="color: #1d4ed8"/><path d="M 900.0 368 L 900.0 400" fill="none" stroke="#1d4ed8" stroke-width="2" marker-end="url(#arrow-block)" style="color: #1d4ed8"/><path d="M 900.0 496 L 900.0 540" fill="none" stroke="#1d4ed8" stroke-width="2" marker-end="url(#arrow-block)" style="color: #1d4ed8"/><path d="M 800 595.0 L 740 595.0 L 740 672 L 740 672 L 740 748.0 L 680 748.0" fill="none" stroke="#1d4ed8" stroke-width="2" marker-end="url(#arrow-block)" style="color: #1d4ed8"/><text x="740" y="660.0" text-anchor="middle" dominant-baseline="central" font-family="sans-serif" font-size="11" fill="#111827">SHARED_ONLY / HYBRID</text><path d="M 1000 595.0 L 1060 595.0 L 1060 672 L 1060 672 L 1060 748.0 L 1120 748.0" fill="none" stroke="#1d4ed8" stroke-width="2" marker-end="url(#arrow-block)" style="color: #1d4ed8"/><text x="1060" y="660.0" text-anchor="middle" dominant-baseline="central" font-family="sans-serif" font-size="11" fill="#111827">TASK_ONLY / HYBRID</text><path d="M 680 748.0 L 740 748.0 L 740 828 L 710 828 L 710 908.0 L 770 908.0" fill="none" stroke="#1d4ed8" stroke-width="2" marker-end="url(#arrow-block)" style="color: #1d4ed8"/><path d="M 1120 748.0 L 1060 748.0 L 1060 828 L 1090 828 L 1090 908.0 L 1030 908.0" fill="none" stroke="#1d4ed8" stroke-width="2" marker-end="url(#arrow-block)" style="color: #1d4ed8"/><path d="M 900.0 956 L 900.0 990" fill="none" stroke="#1d4ed8" stroke-width="2" marker-end="url(#arrow-block)" style="color: #1d4ed8"/><path d="M 900.0 1078 L 900.0 1120" fill="none" stroke="#1d4ed8" stroke-width="2" marker-end="url(#arrow-block)" style="color: #1d4ed8"/><path d="M 900.0 1216 L 900.0 1260" fill="none" stroke="#1d4ed8" stroke-width="2" marker-end="url(#arrow-block)" style="color: #1d4ed8"/><path d="M 900.0 1348 L 900.0 1390" fill="none" stroke="#1d4ed8" stroke-width="2" marker-end="url(#arrow-block)" style="color: #1d4ed8"/><path d="M 900.0 1478 L 900.0 1520" fill="none" stroke="#1d4ed8" stroke-width="2" marker-end="url(#arrow-block)" style="color: #1d4ed8"/><path d="M 1000 1575.0 L 1120 1578.0" fill="none" stroke="#64748b" stroke-width="1.5" stroke-dasharray="2 4" marker-end="url(#arrow-open)" style="color: #64748b"/><text x="1120" y="1566.0" text-anchor="middle" dominant-baseline="central" font-family="sans-serif" font-size="11" fill="#111827">否</text><path d="M 900.0 1630 L 900.0 1670" fill="none" stroke="#1d4ed8" stroke-width="2" marker-end="url(#arrow-block)" style="color: #1d4ed8"/><text x="900.0" y="1658.0" text-anchor="middle" dominant-baseline="central" font-family="sans-serif" font-size="11" fill="#111827">是</text><path d="M 900.0 1766 L 900.0 1810" fill="none" stroke="#1d4ed8" stroke-width="2" marker-end="url(#arrow-block)" style="color: #1d4ed8"/><path d="M 900.0 1946 L 900.0 1990" fill="none" stroke="#1d4ed8" stroke-width="2" marker-end="url(#arrow-block)" style="color: #1d4ed8"/><path d="M 900.0 2086 L 900.0 2130" fill="none" stroke="#1d4ed8" stroke-width="2" marker-end="url(#arrow-block)" style="color: #1d4ed8"/><path d="M 1000 2185.0 L 1120 2188.0" fill="none" stroke="#64748b" stroke-width="1.5" stroke-dasharray="2 4" marker-end="url(#arrow-open)" style="color: #64748b"/><text x="1120" y="2176.0" text-anchor="middle" dominant-baseline="central" font-family="sans-serif" font-size="11" fill="#111827">否</text><path d="M 900.0 2240 L 900.0 2280" fill="none" stroke="#1d4ed8" stroke-width="2" marker-end="url(#arrow-block)" style="color: #1d4ed8"/><text x="900.0" y="2268.0" text-anchor="middle" dominant-baseline="central" font-family="sans-serif" font-size="11" fill="#111827">是</text><path d="M 900.0 2392 L 900.0 2430" fill="none" stroke="#1d4ed8" stroke-width="2" marker-end="url(#arrow-block)" style="color: #1d4ed8"/><path d="M 1120 1578.0 L 1060 1578.0 L 1060 2104 L 1110 2104 L 1110 2630.0 L 1050 2630.0" fill="none" stroke="#475569" stroke-width="1.5" stroke-dasharray="6 4" marker-end="url(#arrow-block)" style="color: #475569"/><text x="1110" y="2092.0" text-anchor="middle" dominant-baseline="central" font-family="sans-serif" font-size="11" fill="#111827">循环中累计 rejectedUnits</text><path d="M 1120 2188.0 L 1060 2188.0 L 1060 2409 L 1110 2409 L 1110 2630.0 L 1050 2630.0" fill="none" stroke="#475569" stroke-width="1.5" stroke-dasharray="6 4" marker-end="url(#arrow-block)" style="color: #475569"/><text x="1110" y="2397.0" text-anchor="middle" dominant-baseline="central" font-family="sans-serif" font-size="11" fill="#111827">循环中累计 rejectedUnits</text><path d="M 900.0 2518 L 900.0 2570" fill="none" stroke="#475569" stroke-width="1.5" stroke-dasharray="6 4" marker-end="url(#arrow-block)" style="color: #475569"/><text x="900.0" y="2558.0" text-anchor="middle" dominant-baseline="central" font-family="sans-serif" font-size="11" fill="#111827">循环中累计 selectedUnits</text><path d="M 900.0 2690 L 900.0 2730" fill="none" stroke="#1d4ed8" stroke-width="2" marker-end="url(#arrow-block)" style="color: #1d4ed8"/><path d="M 900.0 2826 L 900.0 2870" fill="none" stroke="#1d4ed8" stroke-width="2" marker-end="url(#arrow-block)" style="color: #1d4ed8"/></svg>